<svg version="1" xmlns="http://www.w3.org/2000/svg" width="682.667" height="682.667" viewBox="0 0 512.000000 512.000000"><path d="M250.6 2.3c-1.5 1.5-3.8 7-6.3 14.8-26.9 85-36.9 115.9-37.7 115.9-.5 0-23.7-8.8-51.6-19.5-27.9-10.7-51.8-19.5-53.2-19.5-3.3 0-7.8 4.5-7.8 7.8 0 1.4 9.5 25.5 21.2 53.4 11.6 27.9 20.9 51 20.7 51.2-.2.2-29.6 9.6-65.3 20.9-35.7 11.4-65.9 21.3-67.2 22.2-4.4 2.9-4.4 10.1 0 13 1.3.9 31.5 10.8 67.2 22.2 35.7 11.3 65.1 20.7 65.3 20.9.2.2-9.1 23.3-20.7 51.2-11.7 27.9-21.2 52-21.2 53.4 0 3.3 4.5 7.8 7.8 7.8 1.4 0 25.3-8.8 53.2-19.5 27.9-10.7 51.1-19.5 51.6-19.5s9.8 28.2 20.8 62.8c10.9 34.5 20.6 64 21.5 65.7 3.3 5.8 10.9 5.8 14.2 0 .9-1.7 10.6-31.2 21.5-65.7 11-34.6 20.3-62.8 20.8-62.8s23.7 8.8 51.6 19.5c27.9 10.7 51.8 19.5 53.2 19.5 3.3 0 7.8-4.5 7.8-7.8 0-1.4-9.5-25.5-21.2-53.4-11.6-27.9-20.9-51-20.7-51.2.2-.2 29.6-9.6 65.3-20.9 35.7-11.4 65.9-21.3 67.2-22.2 4.4-2.9 4.4-10.1 0-13-1.3-.9-31.5-10.8-67.2-22.2-35.7-11.3-65.1-20.7-65.3-20.9-.2-.2 9.1-23.3 20.7-51.2 11.7-27.9 21.2-52 21.2-53.4 0-3.3-4.5-7.8-7.8-7.8-1.4 0-25.3 8.8-53.2 19.5-27.9 10.7-51.1 19.5-51.6 19.5-.8 0-10.8-30.9-37.7-115.9-2.5-7.8-4.8-13.3-6.3-14.8-3-3-7.8-3-10.8 0zm-4.8 85.5c1 .7 1.2 15.5 1 70.8l-.3 69.9-2.4.3c-2 .3-5.6-2.8-19.8-17-10.7-10.7-17.3-18-17.3-19.3 0-2.6 31.9-102.6 33.2-104.3 1.2-1.4 3.7-1.6 5.6-.4zm115 45.4c.7.7 1.2 1.9 1.2 2.7 0 .9-8.7 10.2-19.2 20.8-19.1 19.1-22 21.3-24.5 18-1.7-2.1-7.6-22.5-7-24 .3-.8 5.9-3.5 12.4-6 6.5-2.6 16.3-6.4 21.8-8.6 10.8-4.2 13.4-4.8 15.3-2.9zm-202.6 37.5c17.6 17.5 19.8 20.6 16.6 23-.7.5-5.5 2.2-10.6 3.8-6.8 2.1-9.8 2.6-10.9 1.9-1.7-1-18.3-39.6-18.3-42.5 0-1.9 2-3.9 3.9-3.9.9 0 9.6 8 19.3 17.7zM372 223.1c27.8 8.8 51.1 16.6 51.9 17.4.9.8 1.1 2.3.7 3.9l-.6 2.6-70.3-.2-70.2-.3-.3-2.4c-.3-2 2.8-5.6 17-19.8 10.7-10.7 18-17.3 19.3-17.3 1 0 24.7 7.2 52.5 16.1zm-143.2 44.8c.3 2-2.8 5.6-17 19.8-10.7 10.7-18 17.3-19.3 17.3-3.1 0-102.8-32-104.4-33.5-.9-.8-1.1-2.3-.7-3.9l.6-2.6 70.3.2 70.2.3.3 2.4zm58.9 32.3c10.8 10.7 17.3 18 17.3 19.3 0 3.1-32 102.8-33.5 104.4-.8.9-2.3 1.1-3.9.7l-2.6-.6v-69.9c0-38.4.3-70.1.7-70.4 2.3-2.3 5.8.3 22 16.5zm72.1 13c1.4 1.9 17.2 40.1 17.2 41.9 0 1.9-2 3.9-3.9 3.9-2.6 0-37.1-35.1-37.1-37.7 0-2.7.7-3.2 10.5-6.4 9.1-3.1 11.8-3.4 13.3-1.7zm-166.1 24c1.2 1.6 7.3 21 7.3 23.2 0 .8-.9 2-1.9 2.6-3.7 1.9-43.6 17-45.1 17-2 0-4-2-4-3.9 0-.9 8.7-10.2 19.2-20.8 19.1-19.1 22-21.3 24.5-18.1z"/></svg>